<svg width="60" height="106" viewBox="0 0 60 106" fill="none" xmlns="http://www.w3.org/2000/svg">
<path d="M48.0226 34.9746C48.0226 26.4944 46.1254 18.3616 42.7478 12.3652C39.3705 6.36873 34.7899 3 30.0136 3C25.2373 3 20.6566 6.36873 17.2793 12.3652C13.9019 18.3616 12.0045 26.4944 12.0045 34.9746C12.0045 72.2785 3 82.9366 3 82.9366H57.0272C57.0272 82.9366 48.0226 72.2785 48.0226 34.9746Z" stroke="#E3E1FE" stroke-width="4.8598" stroke-linecap="round" stroke-linejoin="round"/>
<path d="M35.206 97.9247C34.6784 99.4684 33.9211 100.75 33.0095 101.64C32.0983 102.531 31.0651 103 30.0134 103C28.9617 103 27.9286 102.531 27.0173 101.64C26.106 100.75 25.3485 99.4684 24.8208 97.9247" stroke="#E3E1FE" stroke-width="4.8598" stroke-linecap="round" stroke-linejoin="round"/>
</svg>
