<svg width="150" height="150" viewBox="0 0 150 150" fill="none" xmlns="http://www.w3.org/2000/svg">
<rect x="150" y="73.6909" width="106.082" height="106.082" transform="rotate(134 150 73.6909)" fill="#252DB0"/>
<path d="M50 72.0469C50 59.2977 50 52.9214 53.2556 48.9624C56.5083 45 61.7472 45 72.2222 45H77.7778C88.2528 45 93.4917 45 96.7444 48.9624C100 52.9214 100 59.2977 100 72.0469V78.8087C100 91.5579 100 97.9342 96.7444 101.893C93.4917 105.856 88.2528 105.856 77.7778 105.856H72.2222C61.7472 105.856 56.5083 105.856 53.2556 101.893C50 97.9342 50 91.5579 50 78.8087V72.0469Z" stroke="white"/>
<path d="M87.5 65.2852C89.8012 65.2852 91.6667 63.0147 91.6667 60.2139C91.6667 57.4131 89.8012 55.1426 87.5 55.1426C85.1988 55.1426 83.3333 57.4131 83.3333 60.2139C83.3333 63.0147 85.1988 65.2852 87.5 65.2852Z" fill="white"/>
<path d="M75 87.2608C80.3694 87.2608 84.7222 81.963 84.7222 75.4278C84.7222 68.8926 80.3694 63.5947 75 63.5947C69.6306 63.5947 65.2778 68.8926 65.2778 75.4278C65.2778 81.963 69.6306 87.2608 75 87.2608Z" stroke="white"/>
</svg>
